<svg xmlns="http://www.w3.org/2000/svg" xmlns:xlink="http://www.w3.org/1999/xlink" width="1366" zoomAndPan="magnify" viewBox="0 0 1024.5 576" height="768" preserveAspectRatio="xMidYMid meet" version="1.0"><defs><g/></defs><g fill="#000000" fill-opacity="1"><g transform="translate(57.571905, 229.528547)"><g><path d="M 39.609375 0 L 39.609375 -101.4375 C 34.484375 -101.4375 29.910156 -101.21875 25.890625 -100.78125 C 21.878906 -100.34375 18.207031 -99.421875 14.875 -98.015625 C 11.539062 -96.617188 8.273438 -94.375 5.078125 -91.28125 L 5.078125 -102.59375 L 85.328125 -102.59375 L 85.328125 -91.28125 C 82.035156 -94.375 78.71875 -96.617188 75.375 -98.015625 C 72.039062 -99.421875 68.390625 -100.34375 64.421875 -100.78125 C 60.460938 -101.21875 55.914062 -101.4375 50.78125 -101.4375 L 50.78125 0 Z M 39.609375 0 "/></g></g></g><g fill="#000000" fill-opacity="1"><g transform="translate(150.879602, 229.528547)"><g><path d="M 43.390625 -101 C 50.160156 -102.925781 56.882812 -103.40625 63.5625 -102.4375 C 70.238281 -101.476562 76.453125 -99.304688 82.203125 -95.921875 C 87.960938 -92.535156 92.921875 -88.132812 97.078125 -82.71875 C 101.234375 -77.300781 104.1875 -71.15625 105.9375 -64.28125 C 107.863281 -57.507812 108.367188 -50.785156 107.453125 -44.109375 C 106.535156 -37.429688 104.40625 -31.191406 101.0625 -25.390625 C 97.726562 -19.585938 93.375 -14.582031 88 -10.375 C 82.632812 -6.164062 76.519531 -3.144531 69.65625 -1.3125 C 62.882812 0.625 56.160156 1.132812 49.484375 0.21875 C 42.804688 -0.695312 36.585938 -2.847656 30.828125 -6.234375 C 25.078125 -9.617188 20.117188 -13.992188 15.953125 -19.359375 C 11.796875 -24.734375 8.75 -30.90625 6.8125 -37.875 C 4.976562 -44.738281 4.566406 -51.53125 5.578125 -58.25 C 6.597656 -64.976562 8.773438 -71.21875 12.109375 -76.96875 C 15.453125 -82.726562 19.78125 -87.710938 25.09375 -91.921875 C 30.414062 -96.128906 36.515625 -99.15625 43.390625 -101 Z M 43.53125 -99.828125 C 37.34375 -98.285156 32.285156 -95.410156 28.359375 -91.203125 C 24.441406 -86.992188 21.515625 -82.035156 19.578125 -76.328125 C 17.648438 -70.617188 16.632812 -64.664062 16.53125 -58.46875 C 16.4375 -52.28125 17.117188 -46.429688 18.578125 -40.921875 C 20.023438 -35.410156 22.320312 -30.039062 25.46875 -24.8125 C 28.613281 -19.59375 32.429688 -14.972656 36.921875 -10.953125 C 41.421875 -6.941406 46.425781 -4.085938 51.9375 -2.390625 C 57.457031 -0.703125 63.265625 -0.679688 69.359375 -2.328125 C 75.554688 -3.960938 80.632812 -6.882812 84.59375 -11.09375 C 88.5625 -15.300781 91.515625 -20.257812 93.453125 -25.96875 C 95.390625 -31.675781 96.453125 -37.625 96.640625 -43.8125 C 96.835938 -50.007812 96.207031 -55.863281 94.75 -61.375 C 93.300781 -66.988281 90.976562 -72.429688 87.78125 -77.703125 C 84.59375 -82.972656 80.75 -87.59375 76.25 -91.5625 C 71.75 -95.53125 66.742188 -98.335938 61.234375 -99.984375 C 55.722656 -101.628906 49.820312 -101.578125 43.53125 -99.828125 Z M 43.53125 -99.828125 "/></g></g></g><g fill="#000000" fill-opacity="1"><g transform="translate(266.824902, 229.528547)"><g><path d="M 93.015625 -102.453125 L 93.015625 0 L 81.984375 0 L 81.984375 -98.96875 C 77.148438 -96.9375 73.015625 -93.71875 69.578125 -89.3125 C 66.140625 -84.914062 63.257812 -79.738281 60.9375 -73.78125 C 58.625 -67.832031 56.789062 -61.492188 55.4375 -54.765625 C 54.082031 -48.046875 53.066406 -41.328125 52.390625 -34.609375 C 51.710938 -27.890625 51.25 -21.550781 51 -15.59375 C 50.757812 -9.644531 50.640625 -4.445312 50.640625 0 L 49.1875 0 L 10.015625 -90.265625 L 5.953125 -99.828125 L 5.953125 0 L 5.078125 0 L 5.078125 -102.453125 L 17.125 -102.453125 L 50.203125 -25.96875 C 50.785156 -32.644531 51.65625 -39.535156 52.8125 -46.640625 C 53.976562 -53.753906 55.578125 -60.625 57.609375 -67.25 C 59.640625 -73.882812 62.25 -79.859375 65.4375 -85.171875 C 68.632812 -90.492188 72.484375 -94.703125 76.984375 -97.796875 C 81.484375 -100.898438 86.828125 -102.453125 93.015625 -102.453125 Z M 93.015625 -102.453125 "/></g></g></g><g fill="#000000" fill-opacity="1"><g transform="translate(367.823572, 229.528547)"><g><path d="M 75.609375 0 L 59.203125 -39.328125 C 53.015625 -38.742188 47.910156 -37.484375 43.890625 -35.546875 C 39.878906 -33.617188 36.640625 -31.273438 34.171875 -28.515625 C 31.703125 -25.753906 29.71875 -22.875 28.21875 -19.875 C 26.71875 -16.875 25.390625 -14.070312 24.234375 -11.46875 C 22.878906 -7.882812 21.398438 -4.90625 19.796875 -2.53125 C 18.203125 -0.164062 15.765625 0.96875 12.484375 0.875 C 12.097656 0.769531 11.734375 0.671875 11.390625 0.578125 C 11.054688 0.484375 10.644531 0.242188 10.15625 -0.140625 C 6.1875 -1.878906 4.59375 -6.085938 5.375 -12.765625 C 5.757812 -15.960938 6.457031 -19.566406 7.46875 -23.578125 C 8.488281 -27.597656 9.867188 -31.925781 11.609375 -36.5625 C 14.222656 -43.53125 17.296875 -50.90625 20.828125 -58.6875 C 24.359375 -66.476562 28.082031 -74.171875 32 -81.765625 C 35.914062 -89.359375 39.710938 -96.253906 43.390625 -102.453125 L 44.40625 -102.453125 L 87.796875 0 Z M 58.765625 -40.34375 L 37.4375 -89.96875 C 32.988281 -81.457031 28.515625 -72.484375 24.015625 -63.046875 C 19.515625 -53.617188 15.71875 -44.695312 12.625 -36.28125 C 10.882812 -31.632812 9.503906 -27.328125 8.484375 -23.359375 C 7.472656 -19.390625 6.773438 -15.859375 6.390625 -12.765625 C 6.285156 -9.765625 6.523438 -7.222656 7.109375 -5.140625 C 7.691406 -3.066406 8.851562 -1.738281 10.59375 -1.15625 C 11.070312 -1.0625 11.429688 -0.960938 11.671875 -0.859375 C 11.921875 -0.765625 12.238281 -0.625 12.625 -0.4375 C 15.53125 -0.238281 17.707031 -1.25 19.15625 -3.46875 C 20.601562 -5.695312 21.910156 -8.457031 23.078125 -11.75 C 24.234375 -14.457031 25.582031 -17.332031 27.125 -20.375 C 28.675781 -23.425781 30.734375 -26.351562 33.296875 -29.15625 C 35.859375 -31.96875 39.171875 -34.390625 43.234375 -36.421875 C 47.304688 -38.453125 52.484375 -39.757812 58.765625 -40.34375 Z M 50.359375 -133.796875 C 51.898438 -135.242188 53.15625 -136.015625 54.125 -136.109375 C 55.09375 -136.203125 55.914062 -135.863281 56.59375 -135.09375 C 57.269531 -134.125 57.414062 -133.15625 57.03125 -132.1875 C 56.644531 -131.226562 55.578125 -130.210938 53.828125 -129.140625 C 52.960938 -128.566406 51.515625 -127.675781 49.484375 -126.46875 C 47.453125 -125.257812 45.347656 -124.023438 43.171875 -122.765625 C 40.992188 -121.503906 39.101562 -120.4375 37.5 -119.5625 C 35.90625 -118.695312 35.109375 -118.265625 35.109375 -118.265625 L 34.96875 -118.703125 C 34.96875 -118.703125 35.597656 -119.351562 36.859375 -120.65625 C 38.117188 -121.96875 39.664062 -123.515625 41.5 -125.296875 C 43.34375 -127.085938 45.082031 -128.78125 46.71875 -130.375 C 48.363281 -131.976562 49.578125 -133.117188 50.359375 -133.796875 Z M 50.359375 -133.796875 "/></g></g></g><g fill="#000000" fill-opacity="1"><g transform="translate(463.598207, 229.528547)"><g><path d="M 12.484375 -77.78125 C 12.484375 -83.195312 13.785156 -87.691406 16.390625 -91.265625 C 19.003906 -94.847656 22.414062 -97.628906 26.625 -99.609375 C 30.832031 -101.597656 35.453125 -102.804688 40.484375 -103.234375 C 45.515625 -103.671875 50.492188 -103.40625 55.421875 -102.4375 C 60.359375 -101.476562 64.832031 -99.882812 68.84375 -97.65625 C 72.863281 -95.4375 75.890625 -92.632812 77.921875 -89.25 L 77.921875 -74 C 74.242188 -81.445312 69.988281 -87.25 65.15625 -91.40625 C 60.320312 -95.570312 55.335938 -98.40625 50.203125 -99.90625 C 45.078125 -101.40625 40.191406 -101.816406 35.546875 -101.140625 C 30.910156 -100.460938 26.894531 -98.960938 23.5 -96.640625 C 20.695312 -94.804688 18.785156 -92.484375 17.765625 -89.671875 C 16.753906 -86.867188 17.046875 -83.703125 18.640625 -80.171875 C 20.242188 -76.640625 23.460938 -72.890625 28.296875 -68.921875 C 33.128906 -64.960938 39.945312 -60.898438 48.75 -56.734375 C 54.070312 -54.515625 59.078125 -52 63.765625 -49.1875 C 68.460938 -46.382812 72.285156 -43 75.234375 -39.03125 C 78.191406 -35.0625 79.671875 -30.226562 79.671875 -24.53125 C 79.671875 -20.65625 78.921875 -17.191406 77.421875 -14.140625 C 75.921875 -11.097656 73.863281 -8.515625 71.25 -6.390625 C 67.09375 -3.191406 62.109375 -1.15625 56.296875 -0.28125 C 50.492188 0.582031 44.425781 0.390625 38.09375 -0.859375 C 31.757812 -2.117188 25.6875 -4.414062 19.875 -7.75 C 14.070312 -11.09375 9.140625 -15.378906 5.078125 -20.609375 L 5.078125 -40.78125 C 8.660156 -31.78125 13.160156 -24.28125 18.578125 -18.28125 C 23.992188 -12.28125 29.820312 -7.828125 36.0625 -4.921875 C 42.300781 -2.023438 48.394531 -0.769531 54.34375 -1.15625 C 60.289062 -1.539062 65.539062 -3.671875 70.09375 -7.546875 C 72.507812 -9.578125 74.03125 -11.96875 74.65625 -14.71875 C 75.289062 -17.476562 74.710938 -20.550781 72.921875 -23.9375 C 71.128906 -27.320312 67.835938 -30.875 63.046875 -34.59375 C 58.253906 -38.320312 51.65625 -42.125 43.25 -46 C 38.019531 -48.320312 33.054688 -50.882812 28.359375 -53.6875 C 23.671875 -56.5 19.851562 -59.835938 16.90625 -63.703125 C 13.957031 -67.566406 12.484375 -72.257812 12.484375 -77.78125 Z M 12.484375 -77.78125 "/></g></g></g><g fill="#000000" fill-opacity="1"><g transform="translate(57.571905, 417.68671)"><g><path d="M 40.046875 -55.71875 C 36.566406 -55.71875 33.328125 -56.660156 30.328125 -58.546875 C 27.328125 -60.429688 24.664062 -63.019531 22.34375 -66.3125 C 19.632812 -70.1875 17.75 -75.023438 16.6875 -80.828125 L 16.6875 0 L 5.078125 0 L 5.078125 -102.453125 L 30.765625 -102.453125 C 37.921875 -102.453125 44.445312 -101.675781 50.34375 -100.125 C 56.25 -98.570312 60.96875 -96.101562 64.5 -92.71875 C 68.03125 -89.332031 69.796875 -84.835938 69.796875 -79.234375 C 69.796875 -73.910156 68.34375 -69.503906 65.4375 -66.015625 C 62.539062 -62.535156 58.84375 -59.945312 54.34375 -58.25 C 49.84375 -56.5625 45.078125 -55.71875 40.046875 -55.71875 Z M 58.1875 -79.234375 C 58.1875 -84.742188 56.851562 -89.117188 54.1875 -92.359375 C 51.53125 -95.597656 48.097656 -97.921875 43.890625 -99.328125 C 39.679688 -100.734375 35.304688 -101.4375 30.765625 -101.4375 L 16.6875 -101.4375 L 16.6875 -91.859375 C 16.6875 -86.828125 17.242188 -82.207031 18.359375 -78 C 19.472656 -73.789062 21.09375 -70.140625 23.21875 -67.046875 C 27.570312 -60.273438 33.179688 -56.890625 40.046875 -56.890625 C 44.890625 -56.890625 49.125 -58.628906 52.75 -62.109375 C 56.375 -65.585938 58.1875 -71.296875 58.1875 -79.234375 Z M 58.1875 -79.234375 "/></g></g></g><g fill="#000000" fill-opacity="1"><g transform="translate(135.352524, 417.68671)"><g><path d="M 66.453125 -21.46875 L 62.984375 0 L 5.078125 0 L 5.078125 -102.453125 L 16.6875 -102.453125 L 16.6875 -1.15625 L 41.21875 -1.15625 C 47.5 -1.15625 52.597656 -2.703125 56.515625 -5.796875 C 60.429688 -8.898438 63.742188 -14.125 66.453125 -21.46875 Z M 66.453125 -21.46875 "/></g></g></g><g fill="#000000" fill-opacity="1"><g transform="translate(209.795546, 417.68671)"><g><path d="M 75.609375 0 L 59.203125 -39.328125 C 53.015625 -38.742188 47.910156 -37.484375 43.890625 -35.546875 C 39.878906 -33.617188 36.640625 -31.273438 34.171875 -28.515625 C 31.703125 -25.753906 29.71875 -22.875 28.21875 -19.875 C 26.71875 -16.875 25.390625 -14.070312 24.234375 -11.46875 C 22.878906 -7.882812 21.398438 -4.90625 19.796875 -2.53125 C 18.203125 -0.164062 15.765625 0.96875 12.484375 0.875 C 12.097656 0.769531 11.734375 0.671875 11.390625 0.578125 C 11.054688 0.484375 10.644531 0.242188 10.15625 -0.140625 C 6.1875 -1.878906 4.59375 -6.085938 5.375 -12.765625 C 5.757812 -15.960938 6.457031 -19.566406 7.46875 -23.578125 C 8.488281 -27.597656 9.867188 -31.925781 11.609375 -36.5625 C 14.222656 -43.53125 17.296875 -50.90625 20.828125 -58.6875 C 24.359375 -66.476562 28.082031 -74.171875 32 -81.765625 C 35.914062 -89.359375 39.710938 -96.253906 43.390625 -102.453125 L 44.40625 -102.453125 L 87.796875 0 Z M 58.765625 -40.34375 L 37.4375 -89.96875 C 32.988281 -81.457031 28.515625 -72.484375 24.015625 -63.046875 C 19.515625 -53.617188 15.71875 -44.695312 12.625 -36.28125 C 10.882812 -31.632812 9.503906 -27.328125 8.484375 -23.359375 C 7.472656 -19.390625 6.773438 -15.859375 6.390625 -12.765625 C 6.285156 -9.765625 6.523438 -7.222656 7.109375 -5.140625 C 7.691406 -3.066406 8.851562 -1.738281 10.59375 -1.15625 C 11.070312 -1.0625 11.429688 -0.960938 11.671875 -0.859375 C 11.921875 -0.765625 12.238281 -0.625 12.625 -0.4375 C 15.53125 -0.238281 17.707031 -1.25 19.15625 -3.46875 C 20.601562 -5.695312 21.910156 -8.457031 23.078125 -11.75 C 24.234375 -14.457031 25.582031 -17.332031 27.125 -20.375 C 28.675781 -23.425781 30.734375 -26.351562 33.296875 -29.15625 C 35.859375 -31.96875 39.171875 -34.390625 43.234375 -36.421875 C 47.304688 -38.453125 52.484375 -39.757812 58.765625 -40.34375 Z M 58.765625 -40.34375 "/></g></g></g><g fill="#000000" fill-opacity="1"><g transform="translate(305.570169, 417.68671)"><g><path d="M 5.078125 -102.453125 L 15.96875 -102.453125 C 23.894531 -102.453125 30.929688 -99.765625 37.078125 -94.390625 C 43.222656 -89.023438 48.375 -82.132812 52.53125 -73.71875 C 56.789062 -65.78125 60.175781 -57.046875 62.6875 -47.515625 C 65.195312 -37.992188 66.988281 -28.539062 68.0625 -19.15625 L 68.0625 -102.453125 L 78.9375 -102.453125 L 78.9375 0 L 68.0625 0 C 68.0625 -7.738281 67.453125 -15.910156 66.234375 -24.515625 C 65.023438 -33.128906 63.234375 -41.644531 60.859375 -50.0625 C 58.492188 -58.476562 55.523438 -66.171875 51.953125 -73.140625 C 47.597656 -81.453125 42.46875 -88.242188 36.5625 -93.515625 C 30.664062 -98.796875 23.800781 -101.4375 15.96875 -101.4375 L 15.96875 0 L 5.078125 0 Z M 5.078125 -102.453125 "/></g></g></g><g fill="#000000" fill-opacity="1"><g transform="translate(392.492908, 417.68671)"><g><path d="M 75.609375 0 L 59.203125 -39.328125 C 53.015625 -38.742188 47.910156 -37.484375 43.890625 -35.546875 C 39.878906 -33.617188 36.640625 -31.273438 34.171875 -28.515625 C 31.703125 -25.753906 29.71875 -22.875 28.21875 -19.875 C 26.71875 -16.875 25.390625 -14.070312 24.234375 -11.46875 C 22.878906 -7.882812 21.398438 -4.90625 19.796875 -2.53125 C 18.203125 -0.164062 15.765625 0.96875 12.484375 0.875 C 12.097656 0.769531 11.734375 0.671875 11.390625 0.578125 C 11.054688 0.484375 10.644531 0.242188 10.15625 -0.140625 C 6.1875 -1.878906 4.59375 -6.085938 5.375 -12.765625 C 5.757812 -15.960938 6.457031 -19.566406 7.46875 -23.578125 C 8.488281 -27.597656 9.867188 -31.925781 11.609375 -36.5625 C 14.222656 -43.53125 17.296875 -50.90625 20.828125 -58.6875 C 24.359375 -66.476562 28.082031 -74.171875 32 -81.765625 C 35.914062 -89.359375 39.710938 -96.253906 43.390625 -102.453125 L 44.40625 -102.453125 L 87.796875 0 Z M 58.765625 -40.34375 L 37.4375 -89.96875 C 32.988281 -81.457031 28.515625 -72.484375 24.015625 -63.046875 C 19.515625 -53.617188 15.71875 -44.695312 12.625 -36.28125 C 10.882812 -31.632812 9.503906 -27.328125 8.484375 -23.359375 C 7.472656 -19.390625 6.773438 -15.859375 6.390625 -12.765625 C 6.285156 -9.765625 6.523438 -7.222656 7.109375 -5.140625 C 7.691406 -3.066406 8.851562 -1.738281 10.59375 -1.15625 C 11.070312 -1.0625 11.429688 -0.960938 11.671875 -0.859375 C 11.921875 -0.765625 12.238281 -0.625 12.625 -0.4375 C 15.53125 -0.238281 17.707031 -1.25 19.15625 -3.46875 C 20.601562 -5.695312 21.910156 -8.457031 23.078125 -11.75 C 24.234375 -14.457031 25.582031 -17.332031 27.125 -20.375 C 28.675781 -23.425781 30.734375 -26.351562 33.296875 -29.15625 C 35.859375 -31.96875 39.171875 -34.390625 43.234375 -36.421875 C 47.304688 -38.453125 52.484375 -39.757812 58.765625 -40.34375 Z M 58.765625 -40.34375 "/></g></g></g><g fill="#000000" fill-opacity="1"><g transform="translate(488.267542, 417.68671)"><g><path d="M 12.484375 -77.78125 C 12.484375 -83.195312 13.785156 -87.691406 16.390625 -91.265625 C 19.003906 -94.847656 22.414062 -97.628906 26.625 -99.609375 C 30.832031 -101.597656 35.453125 -102.804688 40.484375 -103.234375 C 45.515625 -103.671875 50.492188 -103.40625 55.421875 -102.4375 C 60.359375 -101.476562 64.832031 -99.882812 68.84375 -97.65625 C 72.863281 -95.4375 75.890625 -92.632812 77.921875 -89.25 L 77.921875 -74 C 74.242188 -81.445312 69.988281 -87.25 65.15625 -91.40625 C 60.320312 -95.570312 55.335938 -98.40625 50.203125 -99.90625 C 45.078125 -101.40625 40.191406 -101.816406 35.546875 -101.140625 C 30.910156 -100.460938 26.894531 -98.960938 23.5 -96.640625 C 20.695312 -94.804688 18.785156 -92.484375 17.765625 -89.671875 C 16.753906 -86.867188 17.046875 -83.703125 18.640625 -80.171875 C 20.242188 -76.640625 23.460938 -72.890625 28.296875 -68.921875 C 33.128906 -64.960938 39.945312 -60.898438 48.75 -56.734375 C 54.070312 -54.515625 59.078125 -52 63.765625 -49.1875 C 68.460938 -46.382812 72.285156 -43 75.234375 -39.03125 C 78.191406 -35.0625 79.671875 -30.226562 79.671875 -24.53125 C 79.671875 -20.65625 78.921875 -17.191406 77.421875 -14.140625 C 75.921875 -11.097656 73.863281 -8.515625 71.25 -6.390625 C 67.09375 -3.191406 62.109375 -1.15625 56.296875 -0.28125 C 50.492188 0.582031 44.425781 0.390625 38.09375 -0.859375 C 31.757812 -2.117188 25.6875 -4.414062 19.875 -7.75 C 14.070312 -11.09375 9.140625 -15.378906 5.078125 -20.609375 L 5.078125 -40.78125 C 8.660156 -31.78125 13.160156 -24.28125 18.578125 -18.28125 C 23.992188 -12.28125 29.820312 -7.828125 36.0625 -4.921875 C 42.300781 -2.023438 48.394531 -0.769531 54.34375 -1.15625 C 60.289062 -1.539062 65.539062 -3.671875 70.09375 -7.546875 C 72.507812 -9.578125 74.03125 -11.96875 74.65625 -14.71875 C 75.289062 -17.476562 74.710938 -20.550781 72.921875 -23.9375 C 71.128906 -27.320312 67.835938 -30.875 63.046875 -34.59375 C 58.253906 -38.320312 51.65625 -42.125 43.25 -46 C 38.019531 -48.320312 33.054688 -50.882812 28.359375 -53.6875 C 23.671875 -56.5 19.851562 -59.835938 16.90625 -63.703125 C 13.957031 -67.566406 12.484375 -72.257812 12.484375 -77.78125 Z M 12.484375 -77.78125 "/></g></g></g></svg>