<svg xmlns="http://www.w3.org/2000/svg" xmlns:xlink="http://www.w3.org/1999/xlink" width="1366" zoomAndPan="magnify" viewBox="0 0 1024.5 576" height="768" preserveAspectRatio="xMidYMid meet" version="1.0"><defs><clipPath id="dd8e343afa"><path d="M 224.140625 0.140625 L 799.859375 0.140625 L 799.859375 575.859375 L 224.140625 575.859375 Z M 224.140625 0.140625 " clip-rule="nonzero"/></clipPath></defs><g clip-path="url(#dd8e343afa)"><path fill="#000000" d="M 715.539062 84.453125 C 661.171875 30.082031 588.886719 0.140625 511.996094 0.140625 C 435.105469 0.140625 362.820312 30.082031 308.453125 84.453125 C 254.082031 138.820312 224.140625 211.105469 224.140625 287.996094 C 224.140625 364.882812 254.082031 437.171875 308.453125 491.539062 C 362.820312 545.910156 435.105469 575.851562 511.996094 575.851562 C 588.886719 575.851562 661.171875 545.910156 715.539062 491.539062 C 769.910156 437.171875 799.851562 364.882812 799.851562 287.996094 C 799.851562 211.105469 769.910156 138.820312 715.539062 84.453125 Z M 321.511719 97.511719 C 372.394531 46.632812 440.042969 18.613281 511.996094 18.613281 C 583.949219 18.613281 651.597656 46.632812 702.476562 97.511719 C 753.355469 148.394531 781.378906 216.039062 781.378906 287.996094 C 781.378906 347.808594 761.996094 404.640625 726.234375 451.34375 C 697.773438 411.550781 652.328125 388.039062 602.972656 388.039062 L 421.019531 388.039062 C 371.664062 388.039062 326.214844 411.550781 297.753906 451.34375 C 261.992188 404.640625 242.613281 347.808594 242.613281 287.996094 C 242.613281 216.039062 270.632812 148.394531 321.511719 97.511719 Z M 511.996094 372.863281 C 585.953125 372.863281 646.121094 312.695312 646.121094 238.734375 C 646.121094 164.777344 585.953125 104.609375 511.996094 104.609375 C 438.039062 104.609375 377.867188 164.777344 377.867188 238.734375 C 377.867188 312.695312 438.039062 372.863281 511.996094 372.863281 Z M 511.996094 372.863281 " fill-opacity="1" fill-rule="nonzero"/></g></svg>